<svg version="1.1" xmlns="http://www.w3.org/2000/svg" xmlns:xlink="http://www.w3.org/1999/xlink" x="0px" y="0px" viewBox="0 0 1000 1000" enable-background="new 0 0 1000 1000" xml:space="preserve"><g style="fill: #777"><path d="M951.5,309.3c-24.7-58.3-60-110.7-105-155.7c-45-45-97.4-80.3-155.8-105C630.3,23,566.1,10.1,500,10.1c-66.1,0-130.3,13-190.7,38.5c-58.4,24.7-110.8,60-155.7,105c-45,45-80.3,97.4-105,155.7C23,369.7,10,433.9,10,500c0,66.1,13,130.3,38.5,190.7c24.7,58.3,60,110.7,105,155.7c45,45,97.4,80.3,155.7,105c60.4,25.6,124.6,38.5,190.7,38.5c66.1,0,130.3-12.9,190.7-38.5c58.4-24.7,110.8-60,155.8-105c45-45,80.3-97.4,105-155.7C977,630.3,990,566.1,990,500C990,433.9,977,369.7,951.5,309.3z M500,953.9C249.6,953.9,46,750.3,46,500C46,249.7,249.6,46,500,46C750.4,46,954,249.7,954,500C954,750.3,750.4,953.9,500,953.9z"/><path d="M774.4,138.6l-600,689.2l29.7,27.1L813.8,152L774.4,138.6z"/></g></svg>